<svg width="111" height="96" viewBox="0 0 111 96" fill="none" xmlns="http://www.w3.org/2000/svg">
<g clip-path="url(#clip0_22_275)">
<ellipse cx="55.2002" cy="48.0005" rx="48" ry="48.0003" fill="url(#paint0_linear_22_275)"/>
<path d="M100.066 74.5461H103.023" stroke="#004B4E" stroke-width="1.28124" stroke-linecap="round" stroke-linejoin="round"/>
<path fill-rule="evenodd" clip-rule="evenodd" d="M83.8042 67.3945C83.8042 67.2619 83.9118 67.1543 84.0444 67.1543H105.74C105.872 67.1543 105.98 67.2619 105.98 67.3945V77.2628C105.98 77.3955 105.872 77.503 105.74 77.503H84.0444C83.9118 77.503 83.8042 77.3955 83.8042 77.2628V67.3945Z" stroke="#004B4E" stroke-width="1.28124" stroke-linecap="round" stroke-linejoin="round"/>
<path d="M90.4567 70.8503L86.7607 74.5463" stroke="#004B4E" stroke-width="1.28124" stroke-linecap="round" stroke-linejoin="round"/>
<path d="M90.4567 74.5463L86.7607 70.8503" stroke="#004B4E" stroke-width="1.28124" stroke-linecap="round" stroke-linejoin="round"/>
<path d="M97.1095 70.8503L93.4136 74.5463" stroke="#004B4E" stroke-width="1.28124" stroke-linecap="round" stroke-linejoin="round"/>
<path d="M97.1095 74.5463L93.4136 70.8503" stroke="#004B4E" stroke-width="1.28124" stroke-linecap="round" stroke-linejoin="round"/>
<path d="M87.1159 31.7665C87.037 31.727 86.9976 31.6629 86.9976 31.5741C86.9976 31.4853 87.0173 31.4014 87.0568 31.3225C88.2801 29.6256 89.8291 28.3134 91.7036 27.386C93.5781 26.4587 95.5808 25.995 97.7118 25.995C99.8429 25.995 101.851 26.4488 103.735 27.3564C105.619 28.2641 107.183 29.5664 108.426 31.2633C108.485 31.362 108.51 31.4409 108.5 31.5001C108.49 31.5593 108.456 31.6185 108.397 31.6777C108.337 31.7369 108.263 31.7665 108.175 31.7665C108.086 31.7665 108.002 31.7171 107.923 31.6185C106.759 30.0005 105.274 28.7574 103.469 27.8892C101.663 27.021 99.7442 26.5869 97.7118 26.5869C95.6795 26.5869 93.7754 27.0259 91.9995 27.904C90.2237 28.7821 88.7438 30.0202 87.5599 31.6185C87.481 31.7171 87.407 31.7763 87.3379 31.7961C87.2689 31.8158 87.1949 31.8059 87.1159 31.7665ZM101.234 46.654C99.2016 46.141 97.5293 45.1248 96.2172 43.6055C94.905 42.0861 94.2489 40.2412 94.2489 38.0707C94.2489 37.1434 94.5893 36.3639 95.2701 35.7325C95.9508 35.1011 96.7647 34.7854 97.7118 34.7854C98.659 34.7854 99.4729 35.1011 100.154 35.7325C100.834 36.3639 101.175 37.1434 101.175 38.0707C101.175 38.8205 101.466 39.452 102.048 39.965C102.63 40.478 103.306 40.7345 104.075 40.7345C104.825 40.7345 105.481 40.478 106.044 39.965C106.606 39.452 106.887 38.8205 106.887 38.0707C106.887 35.6437 105.984 33.6114 104.179 31.9737C102.373 30.3359 100.218 29.5171 97.7118 29.5171C95.2059 29.5171 93.0502 30.3359 91.2448 31.9737C89.4394 33.6114 88.5366 35.6437 88.5366 38.0707C88.5366 38.5443 88.5909 39.1609 88.6994 39.9206C88.8079 40.6803 89.0398 41.5435 89.395 42.5104C89.4344 42.609 89.4344 42.683 89.395 42.7323C89.3555 42.7817 89.3062 42.8261 89.247 42.8655C89.168 42.905 89.0842 42.9149 88.9954 42.8951C88.9066 42.8754 88.8425 42.8162 88.803 42.7175C88.5465 41.9677 88.3442 41.2031 88.1963 40.4237C88.0483 39.6443 87.9743 38.86 87.9743 38.0707C87.9743 35.5254 88.9411 33.3499 90.8748 31.5445C92.8085 29.739 95.0875 28.8363 97.7118 28.8363C100.395 28.8363 102.699 29.7242 104.623 31.5001C106.547 33.2759 107.509 35.4662 107.509 38.0707C107.509 38.9784 107.173 39.7479 106.502 40.3793C105.831 41.0108 105.022 41.3265 104.075 41.3265C103.108 41.3265 102.28 41.0108 101.589 40.3793C100.899 39.7479 100.553 38.9784 100.553 38.0707C100.553 37.3012 100.272 36.6599 99.7097 36.1469C99.1473 35.6339 98.4814 35.3774 97.7118 35.3774C96.9423 35.3774 96.2714 35.6339 95.6992 36.1469C95.127 36.6599 94.8409 37.3012 94.8409 38.0707C94.8409 40.1228 95.4624 41.8346 96.7055 43.2059C97.9486 44.5773 99.4976 45.5392 101.352 46.0917C101.471 46.1311 101.545 46.1805 101.574 46.2396C101.604 46.2988 101.609 46.3679 101.589 46.4468C101.569 46.5455 101.53 46.6145 101.471 46.654C101.412 46.6935 101.333 46.6935 101.234 46.654ZM90.786 25.3438C90.6874 25.3833 90.6134 25.3882 90.5641 25.3586C90.5147 25.329 90.4703 25.2846 90.4309 25.2254C90.3914 25.186 90.3717 25.1268 90.3717 25.0478C90.3717 24.9689 90.4013 24.9097 90.4605 24.8703C91.5852 24.2586 92.7641 23.7949 93.9974 23.4792C95.2306 23.1635 96.4688 23.0056 97.7118 23.0056C98.9944 23.0056 100.252 23.1635 101.486 23.4792C102.719 23.7949 103.898 24.2388 105.022 24.8111C105.121 24.8505 105.175 24.9097 105.185 24.9886C105.195 25.0676 105.18 25.1366 105.141 25.1958C105.101 25.255 105.047 25.3044 104.978 25.3438C104.909 25.3833 104.825 25.3833 104.726 25.3438C103.641 24.8111 102.507 24.3918 101.323 24.0859C100.139 23.7801 98.9352 23.6272 97.7118 23.6272C96.4885 23.6272 95.2947 23.7702 94.1306 24.0563C92.9664 24.3424 91.8515 24.7716 90.786 25.3438ZM94.7521 46.3284C93.6077 45.1445 92.7148 43.9014 92.0735 42.5992C91.4322 41.2969 91.1116 39.7874 91.1116 38.0707C91.1116 36.3146 91.7578 34.8347 93.0502 33.6311C94.3427 32.4275 95.8965 31.8257 97.7118 31.8257C99.5272 31.8257 101.091 32.4275 102.403 33.6311C103.715 34.8347 104.371 36.3146 104.371 38.0707C104.371 38.1694 104.347 38.2434 104.297 38.2927C104.248 38.342 104.174 38.3667 104.075 38.3667C103.977 38.3667 103.898 38.342 103.839 38.2927C103.779 38.2434 103.75 38.1694 103.75 38.0707C103.75 36.4725 103.153 35.1307 101.959 34.0455C100.765 32.9602 99.3496 32.4176 97.7118 32.4176C96.0741 32.4176 94.6682 32.9602 93.4942 34.0455C92.3202 35.1307 91.7332 36.4725 91.7332 38.0707C91.7332 39.7479 92.0242 41.1785 92.6063 42.3624C93.1884 43.5463 94.0516 44.7302 95.1961 45.9141C95.275 45.993 95.3095 46.067 95.2997 46.1361C95.2898 46.2051 95.2553 46.2692 95.1961 46.3284C95.1566 46.3679 95.0925 46.4024 95.0037 46.432C94.9149 46.4616 94.831 46.4271 94.7521 46.3284ZM103.809 44.1678C102.073 44.1678 100.568 43.5907 99.2953 42.4364C98.0226 41.2821 97.3863 39.8269 97.3863 38.0707C97.3863 37.9721 97.4109 37.8932 97.4603 37.834C97.5096 37.7748 97.5836 37.7452 97.6823 37.7452C97.7809 37.7452 97.8549 37.7748 97.9042 37.834C97.9536 37.8932 97.9782 37.9721 97.9782 38.0707C97.9782 39.669 98.5652 40.9861 99.7393 42.022C100.913 43.0579 102.27 43.5759 103.809 43.5759C103.967 43.5759 104.154 43.566 104.371 43.5463C104.588 43.5265 104.825 43.4969 105.082 43.4575C105.18 43.4377 105.259 43.4525 105.318 43.5019C105.378 43.5512 105.417 43.6055 105.437 43.6647C105.457 43.7436 105.452 43.8127 105.422 43.8718C105.392 43.931 105.328 43.9705 105.23 43.9902C104.874 44.0889 104.564 44.1432 104.297 44.153C104.031 44.1629 103.868 44.1678 103.809 44.1678Z" stroke="#004B4E" stroke-width="0.721422"/>
<g clip-path="url(#clip1_22_275)">
<path d="M24.968 49.5925V52.5149C24.968 52.9024 24.8141 53.2741 24.5401 53.5481C24.266 53.8221 23.8944 53.9761 23.5068 53.9761H20.5845" stroke="#004B4E" stroke-width="1.42772" stroke-linecap="round" stroke-linejoin="round"/>
<path d="M20.5845 32.0583H23.5068C23.8944 32.0583 24.266 32.2123 24.5401 32.4863C24.8141 32.7603 24.968 33.132 24.968 33.5195V36.4419" stroke="#004B4E" stroke-width="1.42772" stroke-linecap="round" stroke-linejoin="round"/>
<path d="M3.05029 36.4419V33.5195C3.05029 33.132 3.20424 32.7603 3.47826 32.4863C3.75229 32.2123 4.12395 32.0583 4.51148 32.0583H7.43384" stroke="#004B4E" stroke-width="1.42772" stroke-linecap="round" stroke-linejoin="round"/>
<path d="M7.43384 53.9761H4.51148C4.12395 53.9761 3.75229 53.8221 3.47826 53.5481C3.20424 53.2741 3.05029 52.9024 3.05029 52.5149V49.5925" stroke="#004B4E" stroke-width="1.42772" stroke-linecap="round" stroke-linejoin="round"/>
<path d="M14.0095 44.1129C16.2287 44.1129 18.0277 42.3139 18.0277 40.0947C18.0277 37.8754 16.2287 36.0764 14.0095 36.0764C11.7902 36.0764 9.99121 37.8754 9.99121 40.0947C9.99121 42.3139 11.7902 44.1129 14.0095 44.1129Z" stroke="#004B4E" stroke-width="1.42772" stroke-linecap="round" stroke-linejoin="round"/>
<path d="M20.2097 49.9587C19.7564 48.6765 18.9167 47.5663 17.8063 46.7811C16.6959 45.9959 15.3694 45.5742 14.0094 45.5742C12.6494 45.5742 11.3228 45.9959 10.2124 46.7811C9.10202 47.5663 8.26236 48.6765 7.80908 49.9587" stroke="#004B4E" stroke-width="1.42772" stroke-linecap="round" stroke-linejoin="round"/>
</g>
<path d="M53.9371 47.9188C57.0367 47.9188 59.5494 45.4061 59.5494 42.3064C59.5494 39.2068 57.0367 36.6941 53.9371 36.6941C50.8374 36.6941 48.3247 39.2068 48.3247 42.3064C48.3247 45.4061 50.8374 47.9188 53.9371 47.9188Z" fill="#004B4E"/>
<path d="M68.9036 47.9188C68.9064 47.137 68.6991 46.3688 68.3034 45.6944C67.9078 45.0201 67.3383 44.4644 66.6544 44.0854C65.9706 43.7065 65.1975 43.5181 64.416 43.54C63.6345 43.562 62.8732 43.7934 62.2117 44.2102C61.5502 44.6269 61.0128 45.2137 60.6556 45.9091C60.2984 46.6046 60.1345 47.3832 60.1811 48.1637C60.2277 48.9441 60.483 49.6977 60.9205 50.3457C61.3579 50.9937 61.9613 51.5124 62.6677 51.8474V58.5199L64.5385 60.3907L67.6565 57.2727L65.7857 55.4019L67.6565 53.5312L66.1099 51.9846C66.9313 51.6677 67.6376 51.1098 68.1362 50.3842C68.6348 49.6586 68.9023 48.7992 68.9036 47.9188ZM64.5385 47.9188C64.2918 47.9188 64.0507 47.8456 63.8456 47.7086C63.6405 47.5716 63.4806 47.3768 63.3862 47.1489C63.2918 46.921 63.2671 46.6702 63.3153 46.4283C63.3634 46.1864 63.4822 45.9641 63.6566 45.7897C63.831 45.6153 64.0532 45.4965 64.2952 45.4484C64.5371 45.4003 64.7879 45.425 65.0158 45.5194C65.2437 45.6137 65.4384 45.7736 65.5755 45.9787C65.7125 46.1838 65.7857 46.4249 65.7857 46.6716C65.7857 47.0024 65.6543 47.3196 65.4204 47.5535C65.1865 47.7874 64.8693 47.9188 64.5385 47.9188Z" fill="#004B4E"/>
<path d="M58.8513 50.4383C57.8936 50.0113 56.8568 49.7904 55.8082 49.7898H52.0666C50.082 49.7898 48.1786 50.5782 46.7753 51.9816C45.3719 53.3849 44.5835 55.2883 44.5835 57.2729V59.7673H60.797V52.8953C59.9559 52.2492 59.2875 51.4051 58.8513 50.4383Z" fill="#004B4E"/>
<rect x="38.4731" y="15.4206" width="35.8443" height="65.4755" rx="1.67273" stroke="#004B4E" stroke-width="2.38962" stroke-linejoin="round"/>
</g>
<defs>
<linearGradient id="paint0_linear_22_275" x1="7.2002" y1="48.0005" x2="103.2" y2="48.0005" gradientUnits="userSpaceOnUse">
<stop stop-color="#BCEDFA"/>
<stop offset="1" stop-color="#BFEFF2"/>
</linearGradient>
<clipPath id="clip0_22_275">
<rect width="110.4" height="96.0005" fill="white"/>
</clipPath>
<clipPath id="clip1_22_275">
<rect width="23.3789" height="23.3789" fill="white" transform="translate(2.31982 31.3276)"/>
</clipPath>
</defs>
</svg>
