<svg width="82" height="82" viewBox="0 0 82 82" fill="none" xmlns="http://www.w3.org/2000/svg">
<path d="M49.0019 76.7296C45.9511 77.5083 42.7544 77.9222 39.4611 77.9222C18.2196 77.9222 1 60.7026 1 39.4611C1 18.2196 18.2196 1 39.4611 1C60.7026 1 77.9222 18.2196 77.9222 39.4611C77.9222 42.7544 77.5083 45.9511 76.7296 49.0019" stroke="#FFBF3B" stroke-width="1.78889" stroke-linecap="round"/>
<path d="M65.3998 49.2998C63.2855 49.2998 61.1919 49.7162 59.2386 50.5253C57.2853 51.3344 55.5104 52.5204 54.0154 54.0154C52.5204 55.5104 51.3344 57.2853 50.5253 59.2386C49.7162 61.1919 49.2998 63.2855 49.2998 65.3998C49.2998 67.5141 49.7162 69.6077 50.5253 71.561C51.3344 73.5143 52.5204 75.2892 54.0154 76.7842C55.5104 78.2792 57.2853 79.4652 59.2386 80.2743C61.1919 81.0834 63.2855 81.4998 65.3998 81.4998C67.5141 81.4998 69.6077 81.0834 71.561 80.2743C73.5143 79.4652 75.2892 78.2792 76.7842 76.7842C78.2792 75.2892 79.4652 73.5143 80.2743 71.561C81.0834 69.6077 81.4998 67.5141 81.4998 65.3998C81.4998 63.2855 81.0834 61.1919 80.2743 59.2386C79.4652 57.2853 78.2792 55.5104 76.7842 54.0154C75.2892 52.5204 73.5143 51.3344 71.561 50.5253C69.6077 49.7162 67.5141 49.2998 65.3998 49.2998V49.2998Z" fill="#FFBF3B"/>
<path fill-rule="evenodd" clip-rule="evenodd" d="M74.2156 57.8362C74.5268 58.0655 74.5932 58.5038 74.3639 58.815L64.5639 72.115C64.4509 72.2683 64.2803 72.369 64.0914 72.3938C63.9026 72.4186 63.7118 72.3653 63.563 72.2464L56.563 66.6464C56.2611 66.4049 56.2122 65.9644 56.4537 65.6625C56.6952 65.3606 57.1357 65.3116 57.4376 65.5531L63.8688 70.6981L73.2368 57.9845C73.4661 57.6733 73.9043 57.6069 74.2156 57.8362Z" fill="white"/>
<path d="M37.3631 39.7594C40.7109 39.7594 43.4249 37.0454 43.4249 33.6975C43.4249 30.3497 40.7109 27.6357 37.3631 27.6357C34.0152 27.6357 31.3013 30.3497 31.3013 33.6975C31.3013 37.0454 34.0152 39.7594 37.3631 39.7594Z" fill="#FFBF3B"/>
<path d="M53.5281 39.7591C53.531 38.9147 53.3072 38.0849 52.8798 37.3566C52.4525 36.6283 51.8374 36.0281 51.0988 35.6188C50.3602 35.2094 49.5252 35.006 48.6811 35.0297C47.837 35.0534 47.0147 35.3034 46.3002 35.7535C45.5858 36.2036 45.0053 36.8373 44.6195 37.5885C44.2337 38.3396 44.0567 39.1806 44.107 40.0236C44.1573 40.8665 44.4331 41.6805 44.9056 42.3804C45.378 43.0803 46.0298 43.6404 46.7927 44.0024V51.2092L48.8133 53.2298L52.181 49.8621L50.1604 47.8415L52.181 45.8209L50.5107 44.1505C51.3978 43.8082 52.1607 43.2056 52.6992 42.4219C53.2377 41.6382 53.5266 40.71 53.5281 39.7591ZM48.8133 39.7591C48.5469 39.7591 48.2865 39.6801 48.065 39.5321C47.8434 39.3841 47.6708 39.1737 47.5688 38.9275C47.4669 38.6814 47.4402 38.4105 47.4922 38.1492C47.5441 37.8879 47.6724 37.6479 47.8608 37.4595C48.0492 37.2711 48.2892 37.1428 48.5505 37.0908C48.8118 37.0389 49.0827 37.0655 49.3288 37.1675C49.575 37.2695 49.7854 37.4421 49.9334 37.6636C50.0814 37.8852 50.1604 38.1456 50.1604 38.412C50.1604 38.7693 50.0185 39.1119 49.7659 39.3645C49.5132 39.6172 49.1706 39.7591 48.8133 39.7591Z" fill="#FFBF3B"/>
<path d="M42.6707 42.4803C41.6363 42.0191 40.5165 41.7804 39.3839 41.7798H35.3427C33.1991 41.7798 31.1433 42.6313 29.6275 44.1471C28.1118 45.6628 27.2603 47.7186 27.2603 49.8622V52.5563H44.7721V45.134C43.8637 44.4361 43.1418 43.5245 42.6707 42.4803V42.4803Z" fill="#FFBF3B"/>
</svg>
