<svg width="28" height="28" viewBox="0 0 28 28" fill="none" xmlns="http://www.w3.org/2000/svg">
<path d="M12.06 14.0003C14.7704 14.0003 16.9676 11.8031 16.9676 9.09267C16.9676 6.38227 14.7704 4.18506 12.06 4.18506C9.34956 4.18506 7.15234 6.38227 7.15234 9.09267C7.15234 11.8031 9.34956 14.0003 12.06 14.0003Z" fill="white"/>
<path d="M25.1467 14.0001C25.1491 13.3164 24.9679 12.6447 24.6219 12.055C24.2759 11.4654 23.7779 10.9795 23.18 10.6481C22.582 10.3167 21.906 10.152 21.2226 10.1712C20.5392 10.1904 19.8735 10.3927 19.2951 10.7572C18.7167 11.1216 18.2467 11.6346 17.9344 12.2428C17.622 12.8509 17.4787 13.5318 17.5195 14.2142C17.5602 14.8966 17.7835 15.5556 18.166 16.1223C18.5485 16.6889 19.0761 17.1424 19.6938 17.4354V23.27L21.3297 24.9059L24.0562 22.1794L22.4203 20.5436L24.0562 18.9077L22.7038 17.5554C23.4221 17.2782 24.0397 16.7904 24.4757 16.1559C24.9116 15.5214 25.1456 14.7699 25.1467 14.0001ZM21.3297 14.0001C21.114 14.0001 20.9032 13.9361 20.7238 13.8163C20.5445 13.6965 20.4047 13.5261 20.3221 13.3269C20.2396 13.1276 20.218 12.9083 20.2601 12.6967C20.3022 12.4852 20.406 12.2909 20.5585 12.1383C20.7111 11.9858 20.9054 11.882 21.1169 11.8399C21.3285 11.7978 21.5478 11.8194 21.747 11.9019C21.9463 11.9845 22.1167 12.1243 22.2365 12.3036C22.3563 12.483 22.4203 12.6938 22.4203 12.9095C22.4203 13.1987 22.3054 13.4761 22.1009 13.6807C21.8963 13.8852 21.6189 14.0001 21.3297 14.0001Z" fill="white"/>
<path d="M16.3566 16.2031C15.5191 15.8297 14.6125 15.6365 13.6956 15.636H10.4238C8.68841 15.636 7.02405 16.3254 5.79691 17.5525C4.56977 18.7797 3.88037 20.444 3.88037 22.1795V24.3606H18.0579V18.3515C17.3224 17.7865 16.738 17.0485 16.3566 16.2031Z" fill="white"/>
</svg>
