<svg width="82" height="76" viewBox="0 0 82 76" fill="none" xmlns="http://www.w3.org/2000/svg">
<path fill-rule="evenodd" clip-rule="evenodd" d="M23.4286 8.76923C23.4286 3.91999 27.3559 0 32.2143 0H49.7857C54.5923 0 58.5714 3.90733 58.5714 8.76923V11.6923H79.0714C80.6888 11.6923 82 13.001 82 14.6154C82 16.2298 80.6888 17.5385 79.0714 17.5385H70.2857V67.2308C70.2857 72.041 66.3193 76 61.5 76H20.5C15.629 76 11.7143 72.0284 11.7143 67.2308V17.5385H2.92857C1.31117 17.5385 0 16.2298 0 14.6154C0 13.001 1.31117 11.6923 2.92857 11.6923H23.4286V8.76923ZM29.2857 11.6923H52.7143V8.76923C52.7143 7.16139 51.3829 5.84615 49.7857 5.84615H32.2143C30.5907 5.84615 29.2857 7.14873 29.2857 8.76923V11.6923ZM17.5714 17.5385V67.2308C17.5714 68.825 18.8891 70.1538 20.5 70.1538H61.5C63.0845 70.1538 64.4286 68.8123 64.4286 67.2308V17.5385H17.5714ZM32.2143 29.2308C33.8317 29.2308 35.1429 30.5395 35.1429 32.1538V55.5385C35.1429 57.1528 33.8317 58.4615 32.2143 58.4615C30.5969 58.4615 29.2857 57.1528 29.2857 55.5385V32.1538C29.2857 30.5395 30.5969 29.2308 32.2143 29.2308ZM49.7857 29.2308C51.4031 29.2308 52.7143 30.5395 52.7143 32.1538V55.5385C52.7143 57.1528 51.4031 58.4615 49.7857 58.4615C48.1683 58.4615 46.8571 57.1528 46.8571 55.5385V32.1538C46.8571 30.5395 48.1683 29.2308 49.7857 29.2308Z" fill="#4287C7"/>
</svg>
